# AST/ASF file generated using VICON BodyLanguage
# -----------------------------------------------
:version 1.10
:name VICON
:units
  mass 1.0
  length 0.45
  angle deg
:documentation
   .ast/.asf automatically generated from VICON data using
   VICON BodyBuilder and BodyLanguage model FoxedUp or BRILLIANT.MOD
:root
   order TX TY TZ RX RY RZ
   axis XYZ
   position 0 0 0  
   orientation 0 -0 0 
:bonedata
  begin
     id 1 
     name lhipjoint
     direction 0.500677 -0.737119 0.453848 
     length 2.34727 
     axis 0 -0 0  XYZ
  end
  begin
     id 2 
     name lfemur
     direction 0.34202 -0.939693 0  
     length 7.53653  
     axis 0 -0 20  XYZ
    dof rx ry rz
    limits (-160.0 20.0)
           (-70.0 70.0)
           (-60.0 70.0)
  end
  begin
     id 3 
     name ltibia
     direction 0.34202 -0.939693 0   
     length 6.85572   
     axis 0 -0 20   XYZ
    dof rx
    limits (-10.0 170.0)
  end
  begin
     id 4 
     name lfoot
     direction 0.155313 -0.426718 0.890949   
     length 2.18324   
     axis -90 -1.13533e-015 20   XYZ
    dof rx rz
    limits (-45.0 90.0)
           (-70.0 20.0)
  end
  begin
     id 5 
     name ltoes
     direction 1.53474e-011 -4.21647e-011 1   
     length 1.06748   
     axis -90 -1.13533e-015 20   XYZ
    dof rx
    limits (-90.0 20.0)
  end
  begin
     id 6 
     name rhipjoint
     direction -0.632471 -0.659587 0.406111   
     length 2.62319  
     axis 0 -0 0  XYZ 
  end
  begin
     id 7 
     name rfemur
     direction -0.34202 -0.939693 0   
     length 7.21735   
     axis 0 -0 -20   XYZ
    dof rx ry rz
    limits (-160.0 20.0)
           (-70.0 70.0)
           (-70.0 60.0)
  end
  begin
     id 8 
     name rtibia
     direction -0.34202 -0.939693 0   
     length 7.02558   
     axis 0 -0 -20   XYZ
    dof rx
    limits (-10.0 170.0)
 end
 begin
     id 9 
     name rfoot
     direction -0.16057 -0.441164 0.882945   
     length 2.10014  
     axis -90 1.13533e-015 -20   XYZ
    dof rx rz
    limits (-45.0 90.0)
           (-20.0 70.0)
  end
  begin
     id 10 
     name rtoes
     direction -1.53553e-011 -4.2192e-011 1   
     length 1.02554   
     axis -90 1.13533e-015 -20   XYZ
    dof rx
    limits (-90.0 20.0)
  end
  begin
     id 11 
     name lowerback
     direction 0.0401429 0.998861 -0.0258085   
     length 1.80848   
     axis 0 -0 0   XYZ
    dof rx ry rz
    limits (-20.0 45.0)
           (-30.0 30.0)
           (-30.0 30.0)
  end
  begin
     id 12 
     name upperback
     direction -0.0130978 0.999914 -0.000352645   
     length 1.8116   
     axis 0 -0 0   XYZ
    dof rx ry rz
    limits (-20.0 45.0)
           (-30.0 30.0)
           (-30.0 30.0)
  end
  begin
     id 13 
     name thorax
     direction -0.0300198 0.999453 0.0138573   
     length 1.81778   
     axis 0 -0 0   XYZ
    dof rx ry rz
    limits (-20.0 45.0)
           (-30.0 30.0)
           (-30.0 30.0)
  end
  begin
     id 14 
     name lowerneck
     direction -0.0401726 0.999191 -0.00173647   
     length 2.10594   
     axis 0 -0 0   XYZ
    dof rx ry rz
    limits (-20.0 45.0)
           (-30.0 30.0)
           (-30.0 30.0)
  end
  begin
     id 15 
     name upperneck
     direction 0.0119835 0.998501 0.0534085   
     length 2.07325   
     axis 0 -0 0   XYZ
    dof rx ry rz
    limits (-20.0 45.0)
           (-30.0 30.0)
           (-30.0 30.0)
  end
  begin
     id 16
     name head
     direction 0.00628309 0.999826 0.0175921  
     length 2.15096  
     axis 0 -0 0   XYZ
    dof rx ry rz
    limits (-20.0 45.0)
           (-30.0 30.0)
           (-30.0 30.0)
  end
  begin
     id 17 
     name lclavicle
     direction 0.895501 0.429681 -0.115981  
     length 4.18092  
     axis 0 -0 0   XYZ
    dof ry rz
    limits (-20.0 10.0)
           (0.0 20.0)
  end
  begin
     id 18 
     name lhumerus
     direction 1 -4.48961e-011 -3.38433e-028   
     length 5.77237   
     axis 180 -30 -90   XYZ
    dof rx ry rz
    limits (-60.0 90.0)
           (-90.0 90.0)
           (-90.0 90.0)
  end
  begin
     id 19
     name lradius
     direction 1 -4.4901e-011 1.11983e-026   
     length 2.91878   
     axis 180 -30 -90   XYZ
    dof rx
    limits (-10.0 170.0)
  end
  begin
     id 20
     name lwrist
     direction 1 -4.48934e-011 1.88176e-026   
     length 1.45939   
     axis -1.23311e-014 90 90   XYZ
    dof ry
    limits (-180.0 0.0)
 end
  begin
     id 21 
     name lhand
     direction 1 -4.4895e-011 3.76352e-026   
     length 1.06566   
     axis -2.40147e-014 90 90   XYZ
    dof rx rz
    limits (-90.0 90.0)
           (-45.0 45.0)
  end
  begin
     id 22 
     name lfingers
     direction 1 -4.49005e-011 7.52705e-026   
     length 0.859162   
     axis -4.80295e-014 90 90   XYZ
    dof rx
    limits (0.0 90.0)
  end
  begin
     id 23
     name lthumb
     direction 0.707107 -6.34885e-011 0.707107   
     length 1.23359   
     axis -90 45 -9.86935e-015   XYZ
    dof rx rz
    limits (-45.0 45.0)
           (-45.0 45.0)
  end
  begin
     id 24 
     name rclavicle
     direction -0.91006 0.40451 -0.0903492   
     length 4.23293  
     axis 0 -0 0   XYZ 
    dof ry rz
    limits (-10.0 20.0)
           (-20.0 0.0)
  end
  begin
     id 25 
     name rhumerus
     direction -1 -4.4897e-011 1.7415e-027  
     length 5.49854   
     axis 180 30 90   XYZ
    dof rx ry rz
    limits (-90.0 60.0)
           (-90.0 90.0)
           (-90.0 90.0)
  end
  begin
     id 26 
     name rradius
     direction -1 -4.48963e-011 1.21259e-026   
     length 3.1186   
     axis 180 30 90   XYZ
    dof rx
    limits (-10.0 170.0)
  end
  begin
     id 27 
     name rwrist
     direction -1 -4.48967e-011 1.88176e-026   
     length 1.5593   
     axis -1.23311e-014 -90 -90   XYZ
    dof ry
    limits (-180.0 0.0)
  end
  begin
     id 28
     name rhand
     direction -1 -4.4895e-011 3.76352e-026   
     length 0.71207   
     axis -2.40147e-014 -90 -90   XYZ
    dof rx rz
    limits (-90.0 90.0)
           (-45.0 45.0)
  end
  begin
     id 29
     name rfingers
     direction -1 -4.49005e-011 7.52705e-026   
     length 0.574089   
     axis -4.80295e-014 -90 -90   XYZ
    dof rx
    limits (0.0 90.0)
  end
  begin
     id 30
     name rthumb
     direction -0.707107 -6.34982e-011 0.707107   
     length 0.824281   
     axis -90 -45 9.86935e-015   XYZ
    dof rx rz
    limits (-45.0 45.0)
           (-45.0 45.0)
  end
:hierarchy
  begin
    root lhipjoint rhipjoint lowerback
    lhipjoint lfemur
    lfemur ltibia
    ltibia lfoot
    lfoot ltoes
    rhipjoint rfemur
    rfemur rtibia
    rtibia rfoot
    rfoot rtoes
    lowerback upperback
    upperback thorax
    thorax lowerneck lclavicle rclavicle
    lowerneck upperneck
    upperneck head
    lclavicle lhumerus
    lhumerus lradius
    lradius lwrist
    lwrist lhand lthumb
    lhand lfingers
    rclavicle rhumerus
    rhumerus rradius
    rradius rwrist
    rwrist rhand rthumb
    rhand rfingers
  end

#!OML:ASF C:\ViconDB\ViconDB\414\Spring2016\042216\male.ASF
:FULLY-SPECIFIED
:DEGREES
289
root -11.642 17.5384 6.50885 -71.39 81.4502 286.599
lowerback 0.397836 -0.181888 5.37089
upperback -2.18636 -0.175253 -1.99686
thorax -2.50696 -0.212934 -5.08288
lowerneck -2.8672 1.45578 -7.10037
upperneck -6.39386 2.23513 2.07628
head -1.63776 1.28525 1.86143
rclavicle 4.07509e-015 -1.27222e-014
rhumerus -26.5203 22.0322 -109.067
rradius 36.8302
rwrist 21.1155
rhand 13.4775 -19.6174
rfingers 7.12502
rthumb 38.4166 -45.302
lclavicle 4.07509e-015 -1.27222e-014
lhumerus -35.6339 20.0847 75.5465
lradius 31.5279
lwrist -13.6987
lhand -10.8177 16.4779
lfingers 7.12502
lthumb 15.1961 45.8998
rfemur -11.3346 6.25844 26.6466
rtibia 41.6328
rfoot -16.6791 -22.9139
rtoes -9.21146
lfemur 0.65333 -6.33283 -11.254
ltibia 19.0966
lfoot -22.6908 24.2466
ltoes -14.3462
290
root -11.5754 17.5302 6.48691 -74.9898 81.7269 283.339
lowerback 0.880711 -0.662881 5.58881
upperback -2.02539 -0.795145 -2.05969
thorax -2.69739 -0.53166 -5.25174
lowerneck -2.85911 1.53231 -7.03314
upperneck -6.58088 2.33242 1.94745
head -1.70098 1.3388 1.80626
rclavicle 1.26725e-014 1.59028e-015
rhumerus -26.66 21.9016 -108.866
rradius 36.7354
rwrist 21.1166
rhand 13.0407 -19.9172
rfingers 7.12502
rthumb 38.0043 -45.7153
lclavicle 1.26725e-014 1.59028e-015
lhumerus -35.3411 20.3799 75.4669
lradius 31.3011
lwrist -14.3337
lhand -10.6824 16.3062
lfingers 7.12502
lthumb 15.3264 45.7183
rfemur -11.8637 5.35745 26.3121
rtibia 41.3635
rfoot -17.224 -23.0607
rtoes -11.2706
lfemur 1.46974 -7.4626 -11.6413
ltibia 18.55
lfoot -22.5232 24.779
ltoes -14.4449
291
root -11.5073 17.5282 6.48622 -75.7387 81.9094 282.778
lowerback 1.23389 -1.0142 5.41914
upperback -1.98123 -1.25173 -2.0512
thorax -2.90695 -0.762098 -5.12451
lowerneck -2.75579 1.66151 -6.88965
upperneck -6.69988 2.48644 1.77108
head -1.75894 1.41666 1.72074
rclavicle 1.21259e-014 0
rhumerus -26.8816 21.5144 -108.656
rradius 36.6619
rwrist 20.7776
rhand 13.3601 -20.0595
rfingers 7.12502
rthumb 38.3058 -45.7749
lclavicle 1.21259e-014 0
lhumerus -35.1992 20.1787 75.5372
lradius 31.3177
lwrist -14.1132
lhand -10.6618 16.3859
lfingers 7.12502
lthumb 15.3463 45.7965
rfemur -12.5646 5.03973 25.9982
rtibia 41.0375
rfoot -17.9861 -23.0546
rtoes -11.1934
lfemur 2.20282 -8.09156 -11.9599
ltibia 18.002
lfoot -22.3442 25.2505
ltoes -14.6374
292
root -11.4409 17.5255 6.49688 -72.0789 81.9074 286.489
lowerback 1.46768 -1.09526 5.15147
upperback -1.9591 -1.35576 -2.01281
thorax -3.02064 -0.81075 -4.92403
lowerneck -2.7902 1.71217 -6.96766
upperneck -6.78402 2.56162 1.83555
head -1.78677 1.45714 1.75537
rclavicle 9.83984e-015 1.74931e-014
rhumerus -26.9692 20.789 -108.332
rradius 36.3172
rwrist 21.6065
rhand 13.0084 -19.7811
rfingers 7.12502
rthumb 37.9738 -45.5874
lclavicle 9.83984e-015 1.74931e-014
lhumerus -34.9557 19.9809 75.6683
lradius 31.1183
lwrist -14.4785
lhand -10.8862 16.179
lfingers 7.12502
lthumb 15.1301 45.6059
rfemur -13.478 5.12688 25.7158
rtibia 40.6865
rfoot -18.2452 -23.0225
rtoes -11.3372
lfemur 2.91363 -8.26273 -12.2412
ltibia 17.4009
lfoot -22.1802 25.897
ltoes -14.7734
293
root -11.3748 17.5136 6.51265 -67.1994 81.8751 291.315
lowerback 1.60591 -1.14311 4.67249
upperback -1.96972 -1.42437 -1.89044
thorax -3.10032 -0.835062 -4.51865
lowerneck -2.81982 1.7767 -7.06639
upperneck -6.88229 2.64965 1.77446
head -1.81875 1.50717 1.75227
rclavicle -2.05245e-014 -1.59028e-015
rhumerus -27.1067 20.3972 -107.894
rradius 36.1319
rwrist 21.7657
rhand 13.0804 -19.7872
rfingers 7.12502
rthumb 38.0418 -45.575
lclavicle -2.05245e-014 -1.59028e-015
lhumerus -34.7312 20.1278 75.7175
lradius 30.9336
lwrist -15.0015
lhand -10.7232 15.9425
lfingers 7.12502
lthumb 15.2872 45.3575
rfemur -14.4948 5.31659 25.4032
rtibia 40.3329
rfoot -18.3255 -23.1519
rtoes -11.2804
lfemur 3.59516 -8.28689 -12.5686
ltibia 16.6642
lfoot -21.9307 26.5041
ltoes -14.9677
